# AST/ASF file generated using VICON BodyLanguage
# -----------------------------------------------
:version 1.10
:name VICON
:units
  mass 1.0
  length 0.45
  angle deg
:documentation
   .ast/.asf automatically generated from VICON data using
   VICON BodyBuilder and BodyLanguage model FoxedUp or BRILLIANT.MOD
:root
   order TX TY TZ RX RY RZ
   axis XYZ
   position 0 0 0  
   orientation 0 0 0 
:bonedata
  begin
     id 1 
     name lhipjoint
     direction 0.573633 -0.743009 0.344793 
     length 2.46257 
     axis 0 0 0  XYZ
  end
  begin
     id 2 
     name lfemur
     direction 0.34202 -0.939693 0  
     length 7.3842  
     axis 0 0 20  XYZ
    dof rx ry rz
    limits (-160.0 20.0)
           (-70.0 70.0)
           (-60.0 70.0)
  end
  begin
     id 3 
     name ltibia
     direction 0.34202 -0.939693 0   
     length 7.50407   
     axis 0 0 20   XYZ
    dof rx
    limits (-10.0 170.0)
  end
  begin
     id 4 
     name lfoot
     direction 0.110749 -0.304281 0.946123   
     length 1.95925   
     axis -90 7.62852e-016 20   XYZ
    dof rx rz
    limits (-45.0 90.0)
           (-70.0 20.0)
  end
  begin
     id 5 
     name ltoes
     direction 1.53554e-011 -4.21843e-011 1   
     length 0.978318   
     axis -90 7.62852e-016 20   XYZ
    dof rx
    limits (-90.0 20.0)
  end
  begin
     id 6 
     name rhipjoint
     direction -0.488109 -0.791693 0.367385   
     length 2.31113  
     axis 0 0 0  XYZ 
  end
  begin
     id 7 
     name rfemur
     direction -0.34202 -0.939693 0   
     length 7.40965   
     axis 0 0 -20   XYZ
    dof rx ry rz
    limits (-160.0 20.0)
           (-70.0 70.0)
           (-70.0 60.0)
  end
  begin
     id 8 
     name rtibia
     direction -0.34202 -0.939693 0   
     length 7.55548   
     axis 0 0 -20   XYZ
    dof rx
    limits (-10.0 170.0)
 end
 begin
     id 9 
     name rfoot
     direction -0.127594 -0.350561 0.927808   
     length 2.07199  
     axis -90 -7.62852e-016 -20   XYZ
    dof rx rz
    limits (-45.0 90.0)
           (-20.0 70.0)
  end
  begin
     id 10 
     name rtoes
     direction -1.53542e-011 -4.21909e-011 1   
     length 1.02667   
     axis -90 -7.62852e-016 -20   XYZ
    dof rx
    limits (-90.0 20.0)
  end
  begin
     id 11 
     name lowerback
     direction -0.0103342 0.997298 -0.0727278   
     length 2.02836   
     axis 0 0 0   XYZ
    dof rx ry rz
    limits (-20.0 45.0)
           (-30.0 30.0)
           (-30.0 30.0)
  end
  begin
     id 12 
     name upperback
     direction 0.0171146 0.999786 -0.011606   
     length 2.03179   
     axis 0 0 0   XYZ
    dof rx ry rz
    limits (-20.0 45.0)
           (-30.0 30.0)
           (-30.0 30.0)
  end
  begin
     id 13 
     name thorax
     direction 0.0216927 0.999513 0.0224343   
     length 2.03882   
     axis 0 0 0   XYZ
    dof rx ry rz
    limits (-20.0 45.0)
           (-30.0 30.0)
           (-30.0 30.0)
  end
  begin
     id 14 
     name lowerneck
     direction 0.000989287 0.993907 0.110221   
     length 1.75428   
     axis 0 0 0   XYZ
    dof rx ry rz
    limits (-20.0 45.0)
           (-30.0 30.0)
           (-30.0 30.0)
  end
  begin
     id 15 
     name upperneck
     direction -0.0172474 0.994813 -0.100253   
     length 1.77058   
     axis 0 0 0   XYZ
    dof rx ry rz
    limits (-20.0 45.0)
           (-30.0 30.0)
           (-30.0 30.0)
  end
  begin
     id 16
     name head
     direction -0.00486455 0.99894 -0.0457663  
     length 1.77427  
     axis 0 0 0   XYZ
    dof rx ry rz
    limits (-20.0 45.0)
           (-30.0 30.0)
           (-30.0 30.0)
  end
  begin
     id 17 
     name lclavicle
     direction 0.927314 0.333734 -0.169441  
     length 3.97584  
     axis 0 0 0   XYZ
    dof ry rz
    limits (-20.0 10.0)
           (0.0 20.0)
  end
  begin
     id 18 
     name lhumerus
     direction 1 -4.48965e-011 -3.25313e-028   
     length 4.76468   
     axis 180 -30 -90   XYZ
    dof rx ry rz
    limits (-60.0 90.0)
           (-90.0 90.0)
           (-90.0 90.0)
  end
  begin
     id 19
     name lradius
     direction 1 -4.48969e-011 -2.8465e-028   
     length 3.52712   
     axis -180 -30 -90   XYZ
    dof rx
    limits (-10.0 170.0)
  end
  begin
     id 20
     name lwrist
     direction 1 -4.4896e-011 -7.78665e-028   
     length 1.76356   
     axis 1.91374e-015 90 90   XYZ
    dof ry
    limits (-180.0 0.0)
 end
  begin
     id 21 
     name lhand
     direction 1 -4.48959e-011 -1.55733e-027   
     length 0.859564   
     axis 9.9371e-016 90 90   XYZ
    dof rx rz
    limits (-90.0 90.0)
           (-45.0 45.0)
  end
  begin
     id 22 
     name lfingers
     direction 1 -4.48965e-011 -3.11466e-027   
     length 0.693002   
     axis 1.98742e-015 90 90   XYZ
    dof rx
    limits (0.0 90.0)
  end
  begin
     id 23
     name lthumb
     direction 0.707107 -6.34948e-011 0.707107   
     length 0.995017   
     axis -90 45 2.85299e-015   XYZ
    dof rx rz
    limits (-45.0 45.0)
           (-45.0 45.0)
  end
  begin
     id 24 
     name rclavicle
     direction -0.899388 0.348209 -0.264294   
     length 3.68366  
     axis 0 0 0   XYZ 
    dof ry rz
    limits (-10.0 20.0)
           (-20.0 0.0)
  end
  begin
     id 25 
     name rhumerus
     direction -1 -4.48965e-011 -3.01536e-027  
     length 4.90577   
     axis 180 30 90   XYZ
    dof rx ry rz
    limits (-90.0 60.0)
           (-90.0 90.0)
           (-90.0 90.0)
  end
  begin
     id 26 
     name rradius
     direction -1 -4.48966e-011 3.93291e-027   
     length 3.42692   
     axis -180 30 90   XYZ
    dof rx
    limits (-10.0 170.0)
  end
  begin
     id 27 
     name rwrist
     direction -1 -4.48969e-011 -7.78665e-028   
     length 1.71346   
     axis 1.91374e-015 -90 -90   XYZ
    dof ry
    limits (-180.0 0.0)
  end
  begin
     id 28
     name rhand
     direction -1 -4.48967e-011 -1.55733e-027   
     length 0.740957   
     axis 9.9371e-016 -90 -90   XYZ
    dof rx rz
    limits (-90.0 90.0)
           (-45.0 45.0)
  end
  begin
     id 29
     name rfingers
     direction -1 -4.48949e-011 -3.11466e-027   
     length 0.597378   
     axis 1.98742e-015 -90 -90   XYZ
    dof rx
    limits (0.0 90.0)
  end
  begin
     id 30
     name rthumb
     direction -0.707107 -6.34931e-011 0.707107   
     length 0.857719   
     axis -90 -45 -2.85299e-015   XYZ
    dof rx rz
    limits (-45.0 45.0)
           (-45.0 45.0)
  end
:hierarchy
  begin
    root lhipjoint rhipjoint lowerback
    lhipjoint lfemur
    lfemur ltibia
    ltibia lfoot
    lfoot ltoes
    rhipjoint rfemur
    rfemur rtibia
    rtibia rfoot
    rfoot rtoes
    lowerback upperback
    upperback thorax
    thorax lowerneck lclavicle rclavicle
    lowerneck upperneck
    upperneck head
    lclavicle lhumerus
    lhumerus lradius
    lradius lwrist
    lwrist lhand lthumb
    lhand lfingers
    rclavicle rhumerus
    rhumerus rradius
    rradius rwrist
    rwrist rhand rthumb
    rhand rfingers
  end

#!OML:ASF E:\I on waltz\AllaLogoMonkeySwing\Project 1\Capture day 1\Session 1\Subject1.ASF
:FULLY-SPECIFIED
:DEGREES
144
root 1.24114 8.84333 -1.68569 -31.347 0.0217219 1.55013
lowerback 29.3108 1.72862 -2.47192
upperback 9.95255 1.64228 1.43066
thorax -5.04285 0.751421 2.47155
lowerneck -12.7486 3.94587 2.16351
upperneck 8.69086 5.6039 -5.81638
head 4.92223 2.44304 -1.70919
rclavicle 1.06847e-014 -1.31198e-014
rhumerus -27.8774 13.5092 -91.8909
rradius 84.5973
rwrist 5.81237
rhand -26.4847 -38.5696
rfingers 7.12502
rthumb 0.0776146 -68.5493
lclavicle 1.06847e-014 -1.31198e-014
lhumerus -31.7409 -6.99517 98.7676
lradius 86.6416
lwrist -1.2921
lhand -24.4278 -34.8334
lfingers 7.12502
lthumb 2.06417 -4.86367
rfemur -65.576 -18.6753 19.4348
rtibia 116.644
rfoot -20.0034 0.881183
rtoes 28.4046
lfemur -62.2815 24.8497 -16.5762
ltibia 116.488
lfoot -27.928 -16.1548
ltoes -7.46371
145
root 1.24019 8.8442 -1.68635 -31.3556 -0.00720402 1.50288
lowerback 29.3537 1.71327 -2.45847
upperback 9.99707 1.62634 1.45001
thorax -5.01191 0.74231 2.49045
lowerneck -12.7741 3.94449 2.16703
upperneck 8.70872 5.60017 -5.80036
head 4.93138 2.44158 -1.70457
rclavicle 2.38542e-015 7.15625e-015
rhumerus -27.7849 13.6256 -91.8616
rradius 84.5662
rwrist 5.73444
rhand -26.5471 -38.4995
rfingers 7.12502
rthumb 0.0173475 -68.4792
lclavicle 2.38542e-015 7.15625e-015
lhumerus -31.7008 -7.10423 98.729
lradius 86.6865
lwrist -1.23371
lhand -24.4855 -34.7197
lfingers 7.12502
lthumb 2.00843 -4.74937
rfemur -65.5459 -18.6345 19.502
rtibia 116.629
rfoot -20.0474 0.811652
rtoes 28.3065
lfemur -62.2609 24.8604 -16.4926
ltibia 116.489
lfoot -27.9545 -16.1596
ltoes -7.41512
146
root 1.23986 8.84418 -1.68721 -31.371 -0.0112831 1.52041
lowerback 29.397 1.71632 -2.49708
upperback 10.0347 1.6178 1.44531
thorax -4.98962 0.736765 2.51025
lowerneck -12.7133 3.92553 2.16512
upperneck 8.62945 5.57072 -5.79691
head 4.8954 2.42989 -1.70719
rclavicle 5.61567e-015 -5.56597e-015
rhumerus -27.792 13.7645 -91.8843
rradius 84.707
rwrist 5.49741
rhand -26.654 -38.5
rfingers 7.12502
rthumb -0.0859469 -68.4797
lclavicle 5.61567e-015 -5.56597e-015
lhumerus -31.6972 -7.2616 98.6742
lradius 86.712
lwrist -1.12098
lhand -24.5236 -34.7484
lfingers 7.12502
lthumb 1.97166 -4.77774
rfemur -65.5325 -18.6322 19.4881
rtibia 116.626
rfoot -20.0436 0.817916
rtoes 28.155
lfemur -62.2379 24.8422 -16.498
ltibia 116.484
lfoot -27.8714 -16.1665
ltoes -7.35696
147
root 1.24002 8.84326 -1.68746 -31.3487 -0.00324409 1.58203
lowerback 29.3842 1.74176 -2.56666
upperback 10.0689 1.63057 1.43557
thorax -4.94695 0.741274 2.53584
lowerneck -12.7266 3.90242 2.09834
upperneck 8.62878 5.54371 -5.73496
head 4.89254 2.41821 -1.67933
rclavicle -1.15544e-014 7.55382e-015
rhumerus -27.8014 13.8666 -91.8661
rradius 84.8989
rwrist 5.29243
rhand -26.6931 -38.7774
rfingers 7.12502
rthumb -0.123681 -68.7571
lclavicle -1.15544e-014 7.55382e-015
lhumerus -31.7024 -7.46536 98.6515
lradius 86.7569
lwrist -0.996753
lhand -24.5494 -34.8467
lfingers 7.12502
lthumb 1.94675 -4.8758
rfemur -65.59 -18.6406 19.4357
rtibia 116.638
rfoot -20.0561 0.82581
rtoes 27.9816
lfemur -62.2748 24.8141 -16.5813
ltibia 116.488
lfoot -27.8367 -16.1334
ltoes -7.29391
148
root 1.24006 8.84246 -1.68666 -31.328 -0.0151697 1.60479
lowerback 29.3774 1.75749 -2.62319
upperback 10.1075 1.63575 1.44632
thorax -4.90198 0.741662 2.5791
lowerneck -12.7537 3.9056 2.15944
upperneck 8.64488 5.55053 -5.84
head 4.90728 2.41598 -1.72058
rclavicle 8.69683e-016 -2.3059e-014
rhumerus -27.7412 13.8899 -91.7577
rradius 84.9207
rwrist 5.3182
rhand -26.7219 -38.8472
rfingers 7.12502
rthumb -0.15145 -68.8269
lclavicle 8.69683e-016 -2.3059e-014
lhumerus -31.6366 -7.52779 98.6516
lradius 86.7902
lwrist -1.04662
lhand -24.545 -34.87
lfingers 7.12502
lthumb 1.95104 -4.89919
rfemur -65.6336 -18.6407 19.4321
rtibia 116.65
rfoot -20.0338 0.846765
rtoes 28.0421
lfemur -62.2981 24.8205 -16.6038
ltibia 116.495
lfoot -27.8656 -16.1227
ltoes -7.11521
149
root 1.24064 8.84216 -1.68582 -31.3357 -0.0163526 1.61484
lowerback 29.4139 1.75798 -2.68432
upperback 10.1513 1.61898 1.45812
thorax -4.86984 0.731133 2.63301
lowerneck -12.7063 3.91215 2.2698
upperneck 8.52668 5.5552 -6.01806
head 4.87166 2.41348 -1.79461
rclavicle 5.24295e-015 -8.34896e-015
rhumerus -27.6773 13.9354 -91.6699
rradius 84.9093
rwrist 5.31583
rhand -26.8188 -38.6208
rfingers 7.12502
rthumb -0.245098 -68.6004
lclavicle 5.24295e-015 -8.34896e-015
lhumerus -31.5618 -7.46392 98.6545
lradius 86.85
lwrist -1.15447
lhand -24.4918 -34.8163
lfingers 7.12502
lthumb 2.0024 -4.84592
rfemur -65.6259 -18.6661 19.4163
rtibia 116.657
rfoot -19.9941 0.872875
rtoes 27.9677
lfemur -62.2721 24.8193 -16.6094
ltibia 116.493
lfoot -27.8742 -16.1126
ltoes -7.04123
150
root 1.24097 8.84216 -1.68592 -31.3413 -0.0163096 1.61641
lowerback 29.4422 1.75979 -2.72785
upperback 10.2008 1.60901 1.46857
thorax -4.82744 0.724029 2.67317
lowerneck -12.6785 3.90999 2.2929
upperneck 8.39513 5.54757 -6.0728
head 4.82838 2.40996 -1.81716
rclavicle 4.47266e-015 7.95139e-015
rhumerus -27.6189 14.0219 -91.6442
rradius 84.9674
rwrist 5.29125
rhand -26.8607 -38.5697
rfingers 7.12502
rthumb -0.285562 -68.5492
lclavicle 4.47266e-015 7.95139e-015
lhumerus -31.5429 -7.4357 98.6699
lradius 86.9703
lwrist -1.05994
lhand -24.5051 -34.8888
lfingers 7.12502
lthumb 1.98955 -4.91833
rfemur -65.6247 -18.6929 19.4161
rtibia 116.656
rfoot -19.9826 0.86792
rtoes 27.8227
lfemur -62.2619 24.824 -16.6094
ltibia 116.494
lfoot -27.926 -16.0907
ltoes -7.14952
151
root 1.2408 8.84242 -1.68631 -31.3387 -0.0514262 1.5758
lowerback 29.4668 1.76489 -2.69095
upperback 10.2394 1.62568 1.47775
thorax -4.79612 0.731575 2.65667
lowerneck -12.6735 3.90742 2.34521
upperneck 8.33796 5.53802 -6.12578
head 4.81252 2.40477 -1.8432
rclavicle 1.2921e-015 4.37326e-015
rhumerus -27.5843 14.0507 -91.6509
rradius 85.0256
rwrist 5.35083
rhand -26.8837 -38.5937
rfingers 7.12502
rthumb -0.307788 -68.5732
lclavicle 1.2921e-015 4.37326e-015
lhumerus -31.5566 -7.48778 98.6822
lradius 87.0987
lwrist -0.941464
lhand -24.5914 -34.9417
lfingers 7.12502
lthumb 1.90619 -4.97042
rfemur -65.6316 -18.69 19.4889
rtibia 116.644
rfoot -19.9786 0.868477
rtoes 27.9306
lfemur -62.279 24.8679 -16.5465
ltibia 116.505
lfoot -27.946 -16.1099
ltoes -7.16465
152
root 1.24129 8.84328 -1.68716 -31.3456 -0.0871944 1.51895
lowerback 29.5052 1.75917 -2.62541
upperback 10.2812 1.63546 1.47823
thorax -4.76628 0.736331 2.61613
lowerneck -12.7482 3.90716 2.38273
upperneck 8.379 5.53228 -6.12327
head 4.83819 2.40114 -1.8475
rclavicle 2.60905e-015 -1.66979e-014
rhumerus -27.5779 14.0955 -91.7113
rradius 85.1693
rwrist 5.33282
rhand -26.9221 -38.6921
rfingers 7.12502
rthumb -0.344851 -68.6716
lclavicle 2.60905e-015 -1.66979e-014
lhumerus -31.5193 -7.52545 98.6628
lradius 87.1676
lwrist -0.963128
lhand -24.6585 -34.9089
lfingers 7.12502
lthumb 1.84135 -4.93708
rfemur -65.6046 -18.6783 19.5616
rtibia 116.62
rfoot -20.0377 0.832985
rtoes 27.7871
lfemur -62.279 24.8954 -16.4691
ltibia 116.511
lfoot -27.9194 -16.1213
ltoes -7.225
153
root 1.2421 8.84572 -1.68855 -31.3477 -0.0942045 1.5122
lowerback 29.5314 1.75099 -2.63388
upperback 10.3233 1.62067 1.46464
thorax -4.72964 0.727991 2.61092
lowerneck -12.8297 3.91049 2.37078
upperneck 8.43106 5.53103 -6.04083
head 4.8647 2.40292 -1.81852
rclavicle -9.98893e-015 -7.95139e-016
rhumerus -27.5776 14.2276 -91.8114
rradius 85.3918
rwrist 5.19538
rhand -26.9695 -38.9592
rfingers 7.12502
rthumb -0.390596 -68.9386
lclavicle -9.98893e-015 -7.95139e-016
lhumerus -31.4693 -7.49731 98.6159
lradius 87.2173
lwrist -1.00946
lhand -24.6796 -34.8759
lfingers 7.12502
lthumb 1.82105 -4.90391
rfemur -65.5748 -18.6743 19.5634
rtibia 116.594
rfoot -20.0241 0.826605
rtoes 27.7228
lfemur -62.2523 24.8838 -16.4604
ltibia 116.49
lfoot -27.9124 -16.1102
ltoes -7.27811
154
root 1.24234 8.84872 -1.68955 -31.335 -0.0841168 1.54624
lowerback 29.5477 1.75648 -2.69294
upperback 10.3465 1.6091 1.44379
thorax -4.71066 0.721056 2.62573
lowerneck -12.8018 3.90288 2.35561
upperneck 8.42566 5.5129 -5.95267
head 4.85441 2.39986 -1.79076
rclavicle -4.52235e-015 -7.95139e-016
rhumerus -27.5896 14.3017 -91.8711
rradius 85.5274
rwrist 5.10311
rhand -26.9877 -39.0805
rfingers 7.12502
rthumb -0.408176 -69.0599
lclavicle -4.52235e-015 -7.95139e-016
lhumerus -31.4733 -7.47337 98.59
lradius 87.284
lwrist -0.960976
lhand -24.6552 -34.8491
lfingers 7.12502
lthumb 1.84462 -4.87735
rfemur -65.5961 -18.677 19.5246
rtibia 116.584
rfoot -19.9373 0.871878
rtoes 27.9425
lfemur -62.2382 24.8611 -16.5069
ltibia 116.458
lfoot -27.8886 -16.109
ltoes -7.3068
155
root 1.2412 8.84867 -1.69063 -31.36 -0.0529385 1.58866
lowerback 29.6214 1.78244 -2.79433
upperback 10.3671 1.61156 1.43718
thorax -4.72307 0.72049 2.67562
lowerneck -12.772 3.89268 2.30747
upperneck 8.45031 5.49593 -5.84049
head 4.85157 2.39731 -1.75001
rclavicle 7.33018e-015 -3.18055e-015
rhumerus -27.6137 14.2645 -91.8787
rradius 85.5808
rwrist 5.09995
rhand -26.9461 -39.0209
rfingers 7.12502
rthumb -0.368044 -69.0003
lclavicle 7.33018e-015 -3.18055e-015
lhumerus -31.4712 -7.45875 98.6116
lradius 87.328
lwrist -0.82564
lhand -24.5717 -34.8814
lfingers 7.12502
lthumb 1.92526 -4.91035
rfemur -65.6135 -18.6897 19.456
rtibia 116.593
rfoot -19.9436 0.904728
rtoes 27.9223
lfemur -62.2087 24.8449 -16.556
ltibia 116.441
lfoot -27.9181 -16.0908
ltoes -7.48651
156
root 1.24029 8.84645 -1.69093 -31.4012 -0.0521577 1.58538
lowerback 29.7202 1.80424 -2.84161
upperback 10.3755 1.62431 1.45033
thorax -4.761 0.725957 2.71245
lowerneck -12.7086 3.89325 2.30308
upperneck 8.46479 5.49477 -5.80535
head 4.84431 2.39978 -1.73944
rclavicle -4.67144e-015 -6.36111e-015
rhumerus -27.6317 14.1297 -91.8497
rradius 85.5286
rwrist 5.27009
rhand -26.8706 -38.8949
rfingers 7.12502
rthumb -0.295082 -68.8745
lclavicle -4.67144e-015 -6.36111e-015
lhumerus -31.4965 -7.43325 98.6604
lradius 87.3869
lwrist -0.738511
lhand -24.5473 -34.9534
lfingers 7.12502
lthumb 1.94883 -4.98253
rfemur -65.5788 -18.6728 19.4465
rtibia 116.594
rfoot -19.9835 0.909248
rtoes 27.7217
lfemur -62.1769 24.8631 -16.531
ltibia 116.449
lfoot -27.9695 -16.0781
ltoes -7.57988
157
root 1.24157 8.84629 -1.69052 -31.3832 -0.0958539 1.51842
lowerback 29.7534 1.78285 -2.78204
upperback 10.3719 1.61348 1.46648
thorax -4.77907 0.721369 2.69924
lowerneck -12.585 3.9063 2.3565
upperneck 8.41515 5.50548 -5.83723
head 4.81143 2.40789 -1.7593
rclavicle -7.45443e-017 9.14409e-015
rhumerus -27.6262 14.0144 -91.8063
rradius 85.4323
rwrist 5.5286
rhand -26.8107 -38.7611
rfingers 7.12502
rthumb -0.237223 -68.7407
lclavicle -7.45443e-017 9.14409e-015
lhumerus -31.5447 -7.37733 98.687
lradius 87.472
lwrist -0.667961
lhand -24.6923 -35.0824
lfingers 7.12502
lthumb 1.80874 -5.11033
rfemur -65.5724 -18.6321 19.5409
rtibia 116.586
rfoot -19.957 0.903369
rtoes 27.6618
lfemur -62.2115 24.8751 -16.4526
ltibia 116.465
lfoot -27.9618 -16.089
ltoes -7.43014
158
root 1.24366 8.84712 -1.69017 -31.3456 -0.0976962 1.48801
lowerback 29.7439 1.75334 -2.75395
upperback 10.3963 1.58373 1.46679
thorax -4.74464 0.70633 2.69347
lowerneck -12.4808 3.90742 2.332
upperneck 8.29454 5.50156 -5.80056
head 4.75497 2.41153 -1.74679
rclavicle -1.24737e-014 -2.38542e-015
rhumerus -27.5897 14.0194 -91.7788
rradius 85.4525
rwrist 5.58134
rhand -26.8248 -38.6747
rfingers 7.12502
rthumb -0.25084 -68.6543
lclavicle -1.24737e-014 -2.38542e-015
lhumerus -31.5257 -7.32784 98.6796
lradius 87.5589
lwrist -0.575248
lhand -24.8046 -35.161
lfingers 7.12502
lthumb 1.70031 -5.18807
rfemur -65.6043 -18.6564 19.5727
rtibia 116.583
rfoot -19.9286 0.906942
rtoes 27.7227
lfemur -62.2643 24.8303 -16.4588
ltibia 116.47
lfoot -27.8958 -16.0886
ltoes -7.26404
